<svg width="1200" height="600" viewBox="0 0 1200 600" xmlns="http://www.w3.org/2000/svg" role="img" aria-labelledby="title desc">
  <title id="title">Duskwane veil illustration</title>
  <desc id="desc">Abstract night scene with spectral waves and moonlight.</desc>
  <defs>
    <linearGradient id="bg" x1="0" y1="0" x2="1" y2="1">
      <stop offset="0%" stop-color="#050613" />
      <stop offset="60%" stop-color="#120a3f" />
      <stop offset="100%" stop-color="#431d62" />
    </linearGradient>
    <radialGradient id="moon" cx="0.8" cy="0.2" r="0.4">
      <stop offset="0%" stop-color="#ffe3ff" stop-opacity="0.9" />
      <stop offset="100%" stop-color="#ffe3ff" stop-opacity="0" />
    </radialGradient>
    <linearGradient id="aurora" x1="0" y1="0" x2="1" y2="0">
      <stop offset="0%" stop-color="#8c4dff" stop-opacity="0" />
      <stop offset="50%" stop-color="#4cf2f2" stop-opacity="0.65" />
      <stop offset="100%" stop-color="#ff4d6d" stop-opacity="0" />
    </linearGradient>
  </defs>
  <rect width="1200" height="600" fill="url(#bg)" />
  <rect width="1200" height="600" fill="url(#aurora)" opacity="0.6" />
  <circle cx="920" cy="140" r="180" fill="url(#moon)" />
  <g fill="#271342">
    <path d="M0 400 C160 360 320 420 480 380 C640 340 780 420 960 360 C1100 320 1200 340 1200 340 V600 H0 Z" opacity="0.85" />
  </g>
  <g fill="none" stroke="#6df6ff" stroke-width="6" stroke-opacity="0.3">
    <path d="M0 460 C200 420 320 520 520 460 C720 400 860 520 1080 460" />
    <path d="M0 520 C220 470 360 560 560 520 C760 480 900 560 1200 520" />
  </g>
  <g fill="#040510" fill-opacity="0.6">
    <path d="M0 520 H1200 V600 H0 Z" />
  </g>
</svg>
